<svg
   xmlns:dc="http://purl.org/dc/elements/1.1/"
   xmlns:cc="http://creativecommons.org/ns#"
   xmlns:rdf="http://www.w3.org/1999/02/22-rdf-syntax-ns#"
   xmlns:svg="http://www.w3.org/2000/svg"
   xmlns="http://www.w3.org/2000/svg"
   version="1.1"
   width="40.061497"
   height="40.061501"
   id="svg2">
  <defs
     id="defs4" />
  <metadata
     id="metadata7">
    <rdf:RDF>
      <cc:Work
         rdf:about="">
        <dc:format>image/svg+xml</dc:format>
        <dc:type
           rdf:resource="http://purl.org/dc/dcmitype/StillImage" />
        <dc:title></dc:title>
      </cc:Work>
    </rdf:RDF>
  </metadata>
  <g
     transform="translate(-0.23775441,-0.40252644)"
     id="layer3" />
  <g
     transform="translate(-0.23775441,-0.40252644)"
     id="layer2"
     style="display:inline">
    <g
       transform="translate(-0.74735723,-5.2315006)"
       id="g4089"
       style="display:inline">
      <path
         d="m 8.3475276,31.345934 9.0262794,0 0,4.105968 -9.0262794,0 z m 0.01284,-8.596138 26.1537024,0 0,4.144527 -26.1537024,0 z m 4.23e-4,-6.031324 26.1528554,0 0,4.130387 -26.1528554,0 z m 32.2338034,8.946305 c 0,10.813035 -8.765697,19.578733 -19.578733,19.578733 -10.813035,0 -19.5787331,-8.765698 -19.5787331,-19.578733 0,-10.813036 8.7656981,-19.5787337 19.5787331,-19.5787337 10.813036,0 19.578733,8.7656977 19.578733,19.5787337 z"
         id="rect4095"
         style="fill:#3C3C3C;fill-opacity:1;fill-rule:evenodd;stroke:#3C3C3C;stroke-width:0.90403253;stroke-linecap:butt;stroke-linejoin:miter;stroke-miterlimit:4;stroke-opacity:1" />
    </g>
  </g>
  <g
     transform="translate(-0.23775441,-0.40252644)"
     id="layer1"
     style="display:inline" />
</svg>
